<svg xmlns="http://www.w3.org/2000/svg" width="116" height="32" viewBox="0 0 116 32"><path fill="#fff" d="M1.16 3.72v27H0V.28l22.08 27.4V.72h1.16v30.44L1.16 3.72ZM29.77.72h1.32v30h-1.32v-30ZM37.617.72h1.32v28.84h9.28v1.16h-10.6v-30ZM80.307 30.72h-1.4l-5.68-11.44h-15.92l-5.56 11.44h-1.4L65.307 0l15 30.72Zm-7.56-12.6-7.52-15.24-7.36 15.24h14.88ZM84.766.72h1.32v17.4h20.56V.72h1.32v30h-1.32V19.28h-20.56v11.44h-1.32v-30ZM113.897 31.08c-.373 0-.707-.133-1-.4-.267-.267-.4-.6-.4-1 0-.373.133-.693.4-.96.293-.267.627-.4 1-.4s.693.133.96.4c.293.267.44.587.44.96 0 .4-.147.733-.44 1a1.31 1.31 0 0 1-.96.4Z"></path></svg>